<svg width="600" height="600" viewBox="0 0 600 600" xmlns="http://www.w3.org/2000/svg">
  <path d="M138.5,-233.5C178.3,-213.6,210.1,-172.3,232.7,-128.8C255.4,-85.2,268.9,-39.3,267.9,5.9C266.9,51.2,251.4,95.8,225.3,135.3C199.2,174.7,162.6,209,120.3,229.5C78,250,39,256.8,-2.7,261C-44.4,265.2,-88.9,266.9,-129.2,248.4C-169.5,229.9,-205.7,191.3,-223.1,147.8C-240.5,104.3,-239.2,56,-244.1,6.9C-249,-42.2,-260.1,-91.9,-244.3,-130.4C-228.4,-169,-185.6,-196.3,-142.1,-214.8C-98.6,-233.2,-54.3,-242.8,-4.8,-235.2C44.8,-227.7,89.5,-203,138.5,-233.5Z" transform="translate(300 300)" fill="#F59E0B" fill-opacity="0.2"/>
</svg>
