<svg xmlns="http://www.w3.org/2000/svg" width="800" height="400" viewBox="0 0 800 400">
  <defs>
    <!-- Define the pattern for seamless tiling -->
    <pattern id="wavePattern" x="0" y="0" width="800" height="400" patternUnits="userSpaceOnUse">
      <!-- Primary wave -->
      <path d="M0,200 Q200,120 400,200 T800,200 L800,400 L0,400 Z" 
            fill="#F59E0B" 
            opacity="0.15"/>
      
      <!-- Secondary wave for depth -->
      <path d="M0,240 Q150,160 300,240 Q450,320 600,240 Q750,160 800,240 L800,400 L0,400 Z" 
            fill="#F59E0B" 
            opacity="0.08"/>
      
      <!-- Tertiary subtle wave -->
      <path d="M0,180 Q100,140 200,180 Q300,220 400,180 Q500,140 600,180 Q700,220 800,180 L800,400 L0,400 Z" 
            fill="#F59E0B" 
            opacity="0.05"/>
      
      <!-- Top accent wave -->
      <path d="M0,80 Q200,40 400,80 T800,80 L800,0 L0,0 Z" 
            fill="#F59E0B" 
            opacity="0.12"/>
    </pattern>
  </defs>
  
  <!-- Apply the pattern -->
  <rect width="100%" height="100%" fill="url(#wavePattern)"/>
</svg>